<?xml version="1.0" encoding="UTF-8"?>
<svg id="Layer_1" data-name="Layer 1" xmlns="http://www.w3.org/2000/svg" version="1.1" viewBox="0 0 588 555">
  <defs>
    <style>
      .cls-1 {
        fill: #0171c5;
      }

      .cls-1, .cls-2, .cls-3, .cls-4, .cls-5, .cls-6, .cls-7, .cls-8, .cls-9, .cls-10, .cls-11, .cls-12, .cls-13, .cls-14, .cls-15, .cls-16, .cls-17, .cls-18, .cls-19, .cls-20, .cls-21, .cls-22, .cls-23, .cls-24 {
        stroke-width: 0px;
      }

      .cls-2 {
        fill: #0c99dc;
      }

      .cls-3 {
        fill: #52cee9;
      }

      .cls-4 {
        fill: #044279;
      }

      .cls-5 {
        fill: #14a1e0;
      }

      .cls-6 {
        fill: #058fd7;
      }

      .cls-7 {
        fill: #0075cb;
      }

      .cls-8 {
        fill: #0180d3;
      }

      .cls-9 {
        fill: #396591;
      }

      .cls-10 {
        fill: #0b98db;
      }

      .cls-11 {
        fill: #0d9cdd;
      }

      .cls-12 {
        fill: #54cfe9;
      }

      .cls-13 {
        fill: #6ad5e8;
      }

      .cls-14 {
        fill: #0c9dde;
      }

      .cls-15 {
        fill: #50cde9;
      }

      .cls-16 {
        fill: #0792d9;
      }

      .cls-17 {
        fill: #1eaee3;
      }

      .cls-18 {
        fill: #0171c7;
      }

      .cls-19 {
        fill: #07447a;
      }

      .cls-20 {
        fill: #0c98d8;
      }

      .cls-21 {
        fill: #41c4e8;
      }

      .cls-22 {
        fill: #19a9e1;
      }

      .cls-23 {
        fill: #0c98d9;
      }

      .cls-24 {
        fill: #386591;
      }
    </style>
  </defs>
  <path class="cls-19" d="M370.6,25.2c6.9,6.7,10.4,16.3,11.4,25.8,0,.7.2,1.4.2,2.1,1.2,19.3-10.1,37.1-22.2,50.9-14.1,15.8-32.1,27-52,34-.7.2-1.3.5-2,.7-17.1,5.9-34.7,8-52.7,7-7.2-.2-12.3,1.2-18.3,5.3q-2.5,2.3-4.3,5c-.7,1-1.4,2.1-2.2,3.1-5,7.6-9.7,15.3-14.3,23q-1.2,1.9-2.2,2.9c7.7,1.6,15.2,2.5,23,3,.2-.5.4-1.1.7-1.6,1-2.5,2-5,3.1-7.5.3-.9.7-1.7,1.1-2.6,3.5-8.5,7.3-15.1,15.6-19.6,6-1.6,10.5-.8,15.8,2.1,2.6,1.8,3.7,3.2,4.7,6.2.2,2.7.1,5.3,0,8,.5-.3,1-.6,1.6-.9,6.2-3.1,11.6-4.2,18.4-3.1,4.9,2.3,7.5,5.2,10,10,1.8,6.9.4,11.8-3,18-1.6,2-3.1,3.4-5,5,.9.4,1.8.8,2.8,1.2,4,2.2,6.2,4.8,8.2,8.8.5,5.8.8,11.1-1.5,16.5-4.8,4.8-10,7.7-16.5,9.5.2.6.4,1.1.5,1.7,1.7,6,1.5,9.8-1.5,15.3-2.8,4.4-5.9,6.8-11,8-8.1,1.1-14.3-.4-21-5-1.5-1.5-3-3-4.5-4.5q-2.9-2.8-6.7-3.5c-2.7.8-5.2,1.9-7.8,3-2.6.9-5.2,1.7-7.9,2.6q-.9.3-1.9.6c-10.6,3.4-21.3,4.2-32.4,4.2-1.3,0-2.5,0-3.8,0-10.2-.1-19.3-1.4-29-4.4-1-.3-2-.6-3-.8-6.2-2.1-10.4-5.8-15-10.3q-1.8-2.1-4-1.8c1.5,17,7.7,33.1,14.4,48.6q.4.9.8,1.9c8.3,19.2,19.3,35.4,33.8,50.5.8.9,1.6,1.8,2.5,2.7,28.2,29.6,78.9,45.3,119,46.4,1.8,0,3.7,0,5.5,0,0-.6,0-1.2,0-1.9-.6-20.3.6-39.2,15.3-55,14-14.3,30.9-20,50.1-23.9,6.1-1.3,10.6-2.3,14.7-7.3q.2-3-1-6c-.3-1-.7-2-1-3.1-.4-1-.7-2.1-1.1-3.2-2.1-6.8-3.1-12.5.3-19,3.2-4.7,6.3-7.1,11.8-8.7,5.3-.6,8.5.2,13,3q2.9,2.6,5,5v2h2q.3-.9.7-1.8c2.3-4,6.1-6.5,10.3-8.2,5.3-.7,9.7-.7,14.5,1.8,3.6,3.3,6.3,6.1,6.6,11.2q0,1,0,2.1c0,.7,0,1.4,0,2.1q-.1,1.9-1.1,4.9,1,.1,2,.3c5.3.9,9.2,1.6,13,5.7,1.8,3.7,2.2,6.7,2.1,10.8,0,1,0,2,0,3,0,.7,0,1.5,0,2.2,6.3-11.6,11.6-23.4,13.5-36.6.7-4.6,2.1-8.8,3.6-13.1,10.7-37.6-3.9-78.2-22-110.7-12.1-21.2-28.1-39.7-44.7-57.4q-10.8-11.7-11.5-20.1c.2-3.8,1.1-6.8,3.1-10.1,5.2-4.6,10.4-4.7,17.2-4.4,18.4,2.1,37.1,13.6,51.8,24.4.5.4,1.1.8,1.6,1.2,9.8,7.3,18.6,15.4,27.4,23.8q1.3,1.2,2.6,2.5c15.1,14.6,26.9,32.4,37.4,50.5.4.7.8,1.3,1.2,2,15.5,27,24.5,56.5,29.8,87,.1.7.3,1.5.4,2.2,11.1,62.6-10.8,131.1-46.4,182.2-1.3,1.9-2.7,3.7-4,5.6-.4.6-.8,1.1-1.2,1.7-5.2,7.2-10.7,13.8-16.8,20.3.7.2,1.4.5,2,.7,6.6,2.4,9.8,4.5,13.3,10.6,1,3.8.7,7-.3,10.7q-1.9,3-4,5h-2c.4.6.9,1.1,1.3,1.7,2.7,3.7,4.6,6.4,5.2,11-.9,5-2.3,8.1-6.1,11.6-3.9,2.7-6.9,2.8-11.6,2.8-1.1,0-2.1,0-3.2,0q-2.7-.1-4.7-1.1c.2,1,.4,2,.6,3.1.4,4.4.2,6.9-1.6,10.9-3.1,3.4-6.6,6.8-11.3,7.2-7.4.2-12.8-.7-18.4-5.8-2.8-3.1-4.7-6-6.3-9.8q-1.5-3.2-4.7-4.6h-3.3c-.6-.1-1.3-.2-1.9-.3-6-.7-9.4,1.5-14.3,4.7-38,24.7-89.5,36.7-134.6,36.8-1.1,0-2.2,0-3.3,0-2.3,0-4.6,0-6.9,0-3.4,0-6.9,0-10.3,0-18,0-35.7-.8-53.4-4.4q-1.6-.3-3.3-.7c-31.3-6.4-61-16.8-89-32.2q-1.1-.6-2.3-1.2c-16-8.8-31.1-19.2-44.8-31.2-3.9-3.4-7.9-6.6-12-9.8-.6-.6-1.3-1.2-1.9-1.8v-2q-.9-.4-1.8-.8c-7-3.8-12-11.3-16.9-17.3-1.5-1.9-3.1-3.7-4.6-5.5-12.1-13.9-22.2-29.9-30.7-46.4-.4-.8-.9-1.7-1.3-2.5-15.8-31.1-24.4-63-28.7-97.5-.1-.8-.2-1.5-.3-2.3-1.1-8.9-.9-17.9-.9-26.9,0-.9,0-1.8,0-2.7,0-13.6.5-26.7,3.3-40,.2-.9.3-1.7.5-2.6,5.4-26.3,14.9-51.9,29.1-74.7,2-4,2.1-7.3,1.4-11.7q-.1-1.5-.2-3.1-.5-3.1-3.1-4.6t-2.9-1.3c-6.1-3-10-6.3-12.9-12.4-1.9-5.7-1.8-11.6.8-17.1,3.5-3.9,6.1-6.6,11.4-7.4q5.1-.2,7.9.8c-.3-.7-.7-1.3-1-2-.5-6.5-.9-12.6,3-18,3.7-3.4,6.3-4.8,11.3-5.3,4.4.4,6.3,1.7,9.7,4.3,1,.7,2,1.3,3,2,.2-.6.4-1.2.6-1.8,2-3.2,3.9-4,7.4-5.2,5.6-.3,9.7,1.3,14,5,2.5,3.4,4.1,6.9,5,11,.4-.4.8-.7,1.3-1.1,10.7-9.2,21.8-17.4,33.7-24.9.6-.4,1.2-.8,1.8-1.2,26.8-17.3,56.5-29.2,87.3-37.1,8.2-2.2,15.2-5.7,22.6-9.8,38.3-21.3,101.4-13.5,135.9,13.3ZM473,311l1,2-1-2ZM471,314c-.5.7-1.1,1.5-1.6,2.2-2.6,3-5.2,4.8-8.6,6.9q-1.6,1-3.3,2c-2.7,1.5-4.8,2.3-7.6,3.1-3.2,1.1-4.5,2.2-6.2,5.2-.6,1.4-1.2,2.8-1.8,4.1-.7,1.4-1.3,2.9-2,4.3-.3.7-.6,1.4-1,2.1-1.6,3.4-3.7,6.3-5.9,9.3q-1.2,1.6-1,3.6c17.1-7.7,29.8-26.1,40-41q-.5-1-1-2Z"/>
  <path class="cls-1" d="M164,338.6c2.2,1.5,3.7,3.1,5.4,5.1.6.7,1.2,1.4,1.8,2.2,1.4,1.7,2.8,3.4,4.2,5.1,3.2,3.7,6.8,6.8,10.6,9.9.7.6,1.4,1.2,2.1,1.8,11.7,9.8,24.6,18,38.3,24.5,3.6,1.8,7.1,3.7,10.6,5.7q-.4,1-.7,2c-12.1,32.4-23.7,64.8-33.3,98-.4,1.3-.7,2.6-1.1,3.9-1,3.4-1.9,6.7-2.9,10.1-.7,2.3-1.3,4.7-2,7-5.1-.6-9.3-2.2-13.9-4.3-.8-.3-1.5-.7-2.3-1-14.3-6.6-28.8-13.6-41.7-22.6-.6-.4-1.2-.8-1.9-1.3-9.3-6.3-18.1-12.9-26.6-20.3-1.1-1-2.3-2-3.4-3-11.7-10-23-21-32.2-33.4-.8-1.1-1.7-2.2-2.5-3.3-2.5-3.2-5-6.4-7.5-9.7-.8-1-1.6-2.1-2.4-3.1q-1.6-2.9-1.7-4.9c1.6-2.9,3.8-4.6,6.4-6.7.6-.5,1.1-.9,1.7-1.4,14.1-11.5,28.9-22.3,44.2-32.2.7-.5,1.5-.9,2.2-1.4,12.5-8,25.3-15.4,38.1-22.7.8-.4,1.5-.9,2.3-1.3.7-.4,1.4-.8,2.1-1.2.7-.4,1.4-.8,2.2-1.2q1.8-.8,3.9-.2Z"/>
  <path class="cls-17" d="M286,12.4c.7,0,1.5,0,2.2,0,15.1,0,29.2,2.6,43.8,6.6,1,.2,1.9.5,3,.7,5.6,1.4,10.7,3.2,15.8,6,.6.4,1.3.7,1.9,1.1,7.9,4.5,12.6,9,15.7,17.6,3.1,12.4-1.7,24.7-7.3,35.6-2.4,3.6-5.1,6.8-8,10-.6.7-1.2,1.5-1.8,2.3-12.6,15.2-30.9,25.1-49.2,31.7-.6.2-1.3.5-1.9.8-23.5,9.2-52.6,9.8-76.2.7-26.4-12.2-39.1-37.3-49-63.1-1.8-4.8-3.2-9.2-2.9-14.4,15.3-9,34.9-15,52.5-17.3,6.2-.9,10.9-3.4,16.2-6.6,14.3-8.6,28.7-11.7,45.3-11.7Z"/>
  <path class="cls-5" d="M248,398c6.5.8,12.7,2.3,19,4,18.7,4.7,37,5.3,56.2,5,4.5,0,8.9-.1,13.4-.2q1.5,0,3.1,0c.9,0,1.9,0,2.8,0q1.2,0,2.5,0t2,.3c2.1,3.1,2.5,4.7,3.1,8.3.2,1.1.4,2.1.6,3.2.2,1.1.4,2.3.6,3.5,1.8,9.7,3.9,19.2,6.5,28.6,1,3.5,1.8,7,2.5,10.5,2.4,11,6.1,21.5,9.7,32.1,1.3,3.9,2.5,7.8,3.8,11.7,1.7,5.4,3.4,10.7,5.2,16.1-6.8,2.5-13.6,4.1-20.6,5.5-1,.2-1.9.4-2.9.6-19.1,3.8-37.9,5.4-57.3,5.3q-1.6,0-3.2,0c-15.5,0-30.7-.5-46-3.4q-1.5-.3-3.1-.6-27.1-5.1-35.9-9.4c1.9-11.8,4.8-23,8.2-34.4.7-2.5,1.4-4.9,2.2-7.4.4-1.5.9-3,1.3-4.4.2-.7.4-1.3.6-2,1.2-4.2,2.6-8.3,4-12.4,1.6-4.7,3-9.5,4.5-14.3,1.3-4.3,2.8-8.5,4.4-12.7,1.1-2.9,2.2-5.9,3.3-8.9.4-1.2.9-2.3,1.3-3.6.9-2.4,1.8-4.9,2.7-7.3.4-1.2.9-2.3,1.3-3.5.4-1.1.8-2.1,1.2-3.2.9-2.4,1.9-4.6,3.1-6.8Z"/>
  <path class="cls-18" d="M440,368c12.8,3.6,24.8,15.9,35,24q1.1.8,2.1,1.7c11.2,8.9,22,18.1,32.4,28,1.3,1.2,2.6,2.3,3.9,3.4q1.5,1.9,1.6,4.4c-7.1,18.1-32.6,37.5-48,48.6-1.1.8-2.2,1.7-3.3,2.5-18.8,14.1-40.6,25.6-62.7,33.5q-1.4.6-2.8,1.2c-2.7.9-3.6,1-6.2-.2q-1.6-2.8-3.1-6.4-.4-1-.8-1.9c-1.8-4.4-3.2-8.8-4.5-13.4-.6-2.2-1.3-4.3-2-6.4-1.6-4.7-3.1-9.4-4.5-14.1-1.2-3.8-2.4-7.7-3.7-11.5-3.9-11.6-7-23.3-9.8-35.3q-.3-1.1-.5-2.3c-.5-2.2-1-4.3-1.5-6.5-.3-1.3-.6-2.5-.9-3.8-.6-3.2-.7-6.2-.6-9.5q.8-.2,1.7-.5c26.8-7.3,52.7-17.1,75.3-33.5,1-.7,2-1.3,3-2Z"/>
  <path class="cls-3" d="M127,258c2.1,5,3.4,9.8,4.6,15.1,4.6,19.6,14.4,37.5,24.4,54.9-.6.3-1.1.6-1.7.9-32.1,17.1-61.9,37.2-90.8,59.3q-1.2.9-2.4,1.8c-.7.5-1.4,1.1-2.1,1.6-1.9,1.4-3.9,2.4-6,3.4-4.3-6.1-7.8-12.3-11-19.1-.4-.9-.9-1.8-1.3-2.8-3.7-7.9-6.8-16-9.7-24.2-.5-1.3-1-2.7-1.5-4-4.7-12.5-7.2-25.3-9.2-38.5-.1-.7-.2-1.4-.3-2.1-1.7-10.8-3.1-21.4-2.9-32.4,18.4-5.9,36.9-9.9,56-13,.9-.1,1.8-.3,2.7-.4,16.4-2.6,35-3.6,51.3-.6Z"/>
  <path class="cls-16" d="M197.8,127.3c2.5.8,4.5,2,6.7,3.4.8.5,1.7,1.1,2.5,1.6.9.6,1.7,1.1,2.6,1.7.9.6,1.8,1.1,2.7,1.7q6.5,4.1,7.6,6.4c-4,8-10,15.2-15.2,22.3q-9.5,12.2-12.9,26.8c0,1.3,0,2.6,0,3.9,0,1,0,2,0,3q1.2,0,2.4,0c16.2.5,32.4,1.1,48.6,1.9q.2-.9.4-1.7c2.3-10.9,5.8-24.7,15.6-31.3q2.6-.3,5,0c4.3,6.5,2,16.5,1,24,1-.6,2.1-1.3,3.1-1.9,1.4-.8,2.7-1.7,4.1-2.5.7-.4,1.4-.8,2.1-1.2.7-.4,1.3-.8,2-1.2.6-.4,1.2-.7,1.8-1.1,3.6-2.1,6.2-3.3,10.4-3.4.8,0,1.5,0,2.3,0,2.7.5,3.5,1.2,5.1,3.4.2,3.5-.1,5.9-2.3,8.7-6.3,5.9-14.2,10-21.7,14.3,6.3,2.4,12.2,3.6,19,4.3,3.6.9,5.5,2,8,4.7.6,3.2,0,5.9-1,9q-1.5,2.1-4,3c-6.8.7-13-.7-19.6-2.5-.9-.2-1.8-.5-2.8-.7-2.2-.6-4.4-1.2-6.7-1.8v2h2c1.8,1.8,3.4,3.8,5,5.7q1.9,2.3,4,4.3c3.2,3.3,5.4,5.6,5.6,10.3q-.8,4.5-3.6,6.7c-4.4.9-8.1.4-12.1-1.5-6.5-5.5-12-11.5-16.9-18.5-3.9.6-7.4,1.8-11.1,3.1-22.8,8-48.4,11.5-71.1,1.4-12.1-6.5-20.3-17.5-24.3-30.6-1.5-11.3,1.7-25.4,8.7-34.6,1.2-1.4,2.5-2.8,3.8-4.2.8-.9,1.6-1.8,2.5-2.8,1.7-1.9,3.5-3.8,5.2-5.7,1.7-1.9,3.3-3.8,4.9-5.8,5.2-6,11.7-10.8,17.9-15.7,3-2.5,5.9-5.1,8.7-7.9q1.8-1.2,3.6-.9Z"/>
  <path class="cls-7" d="M64,131c4,2.9,7.9,5.7,11.3,9.3,4.1,4.2,8.5,7.8,13.1,11.4,1.7,1.4,3.4,2.8,5.2,4.2,6.1,5,12.3,9.8,18.8,14.4.6.4,1.1.8,1.7,1.2,2.6,1.9,5.3,3.7,8,5.4.9.6,1.8,1.2,2.8,1.8.8.5,1.6,1,2.4,1.4q1.7,1.9,2.1,4.9c-.5,4.7-1.3,9.3-2.3,14-2.2,10.9-3.7,21.4-2.3,32.6.4,3.8.4,7.5.3,11.3q-1,1-4,1.1c-1.4,0-2.8,0-4.1,0-27.7-.2-54.1,3.3-81.1,9.3q-1.2.3-2.4.5c-1.5.3-3,.7-4.5,1-3.6.8-7,1.3-10.7,1.1-.4-12.4.5-23.9,3-36,.3-1.2.5-2.4.8-3.7,6.7-30.5,21.6-61.8,42.2-85.3Z"/>
  <path class="cls-15" d="M501,287c9.1,1.4,16.9,5.4,25.1,9.4,1.5.7,3,1.4,4.5,2.2,12.3,5.9,24.4,12,36.3,18.5-.6,5.7-1.7,11-3.2,16.5-.2.8-.4,1.5-.7,2.3-.7,2.4-1.4,4.8-2.1,7.2-.2.7-.4,1.5-.7,2.3-.6,2.1-1.3,4.2-1.9,6.4-.4,1.2-.7,2.5-1.1,3.7-1.2,3.4-2.6,6.4-4.3,9.6-1.4,2.7-2.6,5.5-3.8,8.3-5.6,13-11.9,25.6-19.8,37.5-1.6,2.4-3,4.8-4.5,7.3-4.3-.5-6.2-3-9.1-6-4.5-4.7-9.2-8.8-14.3-12.8-2.6-2.1-5.1-4.3-7.6-6.6-5.1-4.6-10.5-8.8-16-13-3.5-2.6-6.9-5.2-10.4-7.8-1.9-1.4-3.8-2.9-5.7-4.3q-1.3-1-2.6-2c-.8-.6-1.6-1.2-2.4-1.8-1.8-1.5-3.5-3-5.1-4.7q.7-.7,1.4-1.4,12.6-12.1,23.6-25.6c.4-.5.8-1.1,1.2-1.6,9.6-13.5,16.5-28.1,22.8-43.4Z"/>
  <path class="cls-11" d="M164,338.6c2.2,1.5,3.7,3.1,5.4,5.1.6.7,1.2,1.4,1.8,2.2,1.4,1.7,2.8,3.4,4.2,5.1,3.2,3.7,6.8,6.8,10.6,9.9.7.6,1.4,1.2,2.1,1.8,11.7,9.8,24.6,18,38.3,24.5,3.6,1.8,7.1,3.7,10.6,5.7q-.4,1-.7,2c-5.2,13.9-10.3,27.9-15.3,42-.2.7-.5,1.4-.7,2.1-.7,1.9-1.4,3.9-2.1,5.8-.4,1.1-.8,2.2-1.2,3.4-.8,2.3-1.4,4.5-2,6.9-5-.4-8.5-1.6-12.9-3.9-2.1-1.1-4.2-1.9-6.4-2.7-14.2-5.6-27.4-13.5-39.7-22.4-.7-.5-1.3-1-2-1.4-7.9-5.7-15.5-11.6-22.6-18.3-2.9-2.7-5.8-5.2-8.9-7.7q-1.6-1.6-2.5-3.6c-1.3-2.4-2.6-2.8-5-3.9-2.5-2.5-4.7-5.3-7-8-.5-.6-1.1-1.1-1.6-1.7q-1.4-1.5-3.4-4.3,0-2,1-4t4.5-3.4l2.8-1.8c.9-.6,1.8-1.2,2.8-1.8.8-.5,1.6-1,2.4-1.6,2.4-1.5,4.8-3.1,7.3-4.6.9-.5,1.8-1.1,2.7-1.7,10.4-6.4,20.9-12.4,31.6-18.2q1.1-.6,2.2-1.2,1.8-.8,3.9-.2Z"/>
  <path class="cls-12" d="M248,398c6.5.8,12.7,2.3,19,4,18.7,4.7,37,5.3,56.2,5,4.5,0,8.9-.1,13.4-.2q1.5,0,3.1,0c.9,0,1.9,0,2.8,0q1.2,0,2.5,0t2,.3c2.1,3.1,2.5,4.7,3.1,8.3q.3,1.6.6,3.2c.2,1.1.4,2.3.6,3.5,1.7,9,3.6,17.9,6,26.7,1.6,5.7,2.8,11.4,3.7,17.3-31.7,9.1-73.1,10.1-105,1-1.4-.2-2.8-.3-4.3-.4-5.3-.5-10.2-2-15.3-3.6-.9-.3-1.8-.6-2.8-.9-2.2-.7-4.4-1.4-6.7-2.1.6-5.2,1.8-10,3.4-14.9.2-.7.4-1.3.6-2,1.3-3.9,2.6-7.8,4.1-11.7,1.1-3,2.2-5.9,3.3-8.9q.6-1.8,1.3-3.6c.9-2.4,1.8-4.9,2.7-7.3.4-1.2.9-2.3,1.3-3.5q.6-1.6,1.2-3.2c.9-2.4,1.9-4.6,3.1-6.8Z"/>
  <path class="cls-8" d="M545,163c2,3.6,3.9,7.2,5.8,10.9.5,1,1.1,2,1.7,3.1,2.9,5.5,5.3,10.8,6.9,16.8.6,2.2,1.3,4.2,2.1,6.3,1.7,4.4,3.1,8.8,4.5,13.2.2.8.5,1.5.8,2.3,4.7,15.1,5.7,30.8,5.6,46.6,0,2.6,0,5.2,0,7.8q0,27.5-3.3,34.1c-3.8-.6-6.8-1.7-10.2-3.5-1-.5-2-1-3.1-1.6-1.1-.6-2.2-1.1-3.3-1.7-13.4-6.8-27-13-40.8-19-2.3-1-4.5-2.1-6.7-3.2.4-3.6.8-7.1,1.5-10.7,1.5-8.5,1.8-16.8,1.8-25.5,0-2.3,0-4.5,0-6.8,0-12.2-1.3-24-4.3-35.8-.3-1.4-.7-2.7-1-4.1q-.2-1-.5-2c-.9-3.7-1.7-7.4-2.5-11.1.6-.2,1.1-.4,1.7-.5,10.1-3.2,20-6.5,29.5-11.2q9.1-4.3,13.7-4.3Z"/>
  <path class="cls-21" d="M159,55.2q1,.4,2,.8c1.1,2.7,2,5.3,2.8,8.1,3.8,12.3,9.4,23.5,15.4,34.9.4.8.8,1.6,1.3,2.4,1.8,3.4,3.6,6.7,5.9,9.8q1.6,2.7,1.4,4.7c-1.4,3.5-4.5,5.5-7.3,7.8-1.3,1.1-2.6,2.2-3.9,3.2-.6.5-1.2,1-1.9,1.6-3.3,2.7-6.5,5.5-9.7,8.4-.5.5-1,.9-1.5,1.4-7.1,6.3-13.6,12.6-19.5,20.1-2.8,3.6-5.9,7.1-9,10.5-1.3-.3-2.6-.7-4-1v-2c-.7-.2-1.3-.5-2-.7-3.9-1.7-7.1-4-10.6-6.4-.7-.5-1.4-1-2.1-1.5-6-4.2-11.6-8.7-17.2-13.4-1.8-1.5-3.6-2.9-5.4-4.4-4.7-3.8-9.2-7.9-13.6-12-2.3-2.1-4.4-3.9-7-5.6.6-3.2,1.5-4.9,3.7-7.2.6-.6,1.1-1.2,1.7-1.8.6-.6,1.2-1.3,1.8-1.9.6-.7,1.3-1.3,1.9-2,6.2-6.5,12.9-12.3,19.9-18,.6-.5,1.1-.9,1.7-1.4q43.4-35.7,55.3-34.4Z"/>
  <path class="cls-14" d="M440,368c12.8,3.6,24.8,15.8,35,24,.7.5,1.4,1.1,2.1,1.7.6.5,1.3,1,1.9,1.6.6.5,1.1.9,1.7,1.4q1.2,1.4,1.2,4.4-1.3,1.4-3.2,3c-3.5,2.9-6.7,5.9-10,9.1-8.2,7.6-17.5,13.7-26.8,19.9-.6.4-1.2.8-1.8,1.2-17.1,11.6-45,27.8-66.2,27.8-4.4-11.7-7.5-23.6-10.4-35.8-.2-.8-.4-1.5-.5-2.3-.5-2.2-1-4.4-1.5-6.6-.3-1.3-.6-2.6-.9-3.9-.6-3.3-.8-6.2-.6-9.5q.8-.2,1.7-.5c26.8-7.3,52.7-17.1,75.3-33.5,1-.7,2-1.3,3-2Z"/>
  <path class="cls-6" d="M446,274q1.9,1,3,3c-.3,6.6-2.2,10.9-5.6,16.5q-.6,1.1-1.3,2.2c-1,1.8-2.1,3.5-3.2,5.3,2.9,0,5.3-1.1,8.1-2,5.6-1.8,10.1-2.6,15.9-2q2,2,2.4,4.8c-.6,4.4-1.9,5.5-5.4,8.2-7.7,4.8-17.8,9-27,9-.1.6-.3,1.2-.4,1.8-4.2,15.5-14.5,30.8-28.4,39.3-7.4,4.2-14.7,7.7-23.1,8.9.9.5,1.8,1.1,2.7,1.6,3.5,2.3,5.8,5.1,8.3,8.4-1.8,3.6-6.3,4.4-9.9,5.6-9.1,2.8-18.3,4.9-27.7,6.7-.9.2-1.8.3-2.8.5-5.3.9-10.2,1.3-15.6,1.2-2.2-5.3-2.3-10.1-2.3-15.8,0-.9,0-1.8,0-2.7.2-12.2,4.1-22.1,12.4-31.2,11.5-10.7,26.3-15.7,41.2-19.6q13-3.3,22.7-11.8c.7-6.6-1.5-11.6-3.9-17.5-2-5.2-2.9-9.9-2.1-15.5q1.6-2.6,4-4t7,1c4.4,4.6,6.2,10.9,8.2,16.8q.6,2.2,1.8,3.2c.4-.7.7-1.4,1.1-2.1q11-21,19.9-19.9Z"/>
  <path class="cls-10" d="M57,263c0,1,.2,2,.3,3,.8,8.4,2.2,16.6,4.1,24.8.2.8.4,1.7.6,2.5,2.7,10.9,6.5,21.4,11.1,31.7.5,1.1.9,2.1,1.4,3.3,5.8,12.8,12.1,25.4,20.5,36.7-1.1.8-2.1,1.5-3.2,2.3-9.5,6.8-18.9,13.7-28.2,20.8-.8.6-1.6,1.2-2.4,1.8-.7.5-1.4,1.1-2.1,1.6-1.9,1.4-3.9,2.4-6,3.4-4.3-6.1-7.8-12.3-11-19.1-.4-.9-.9-1.8-1.3-2.8-3.7-7.9-6.8-16-9.7-24.2-.5-1.3-1-2.7-1.5-4-4.7-12.5-7.2-25.3-9.2-38.5-.1-.7-.2-1.4-.3-2.1-1.7-10.8-3.1-21.4-2.9-32.4,3.8-1.1,7.6-2.3,11.4-3.4,1.1-.3,2.1-.6,3.2-1q17.3-5.1,25.4-4.7Z"/>
  <path class="cls-2" d="M537,302q20.4,9.5,30,15c-.6,5.7-1.7,11-3.2,16.5-.2.8-.4,1.5-.7,2.3-.7,2.4-1.4,4.8-2.1,7.2-.2.7-.4,1.5-.7,2.3-.6,2.1-1.3,4.2-1.9,6.4-.4,1.2-.7,2.5-1.1,3.7-1.2,3.4-2.6,6.4-4.3,9.6-1.4,2.7-2.6,5.5-3.8,8.3-5.6,13-11.9,25.6-19.8,37.5-1.6,2.4-3,4.8-4.5,7.3-4.3-.5-6.2-3-9.1-6-4.5-4.7-9.3-8.9-14.3-12.9-3.6-2.9-7.1-6-10.6-9.1.9-1,1.7-2,2.6-3,15.3-17.9,26.7-36.8,35.5-58.7.8-2.1,1.7-4.1,2.5-6.2,2.7-6.7,4.4-13.1,5.4-20.2Z"/>
  <path class="cls-22" d="M432.1,67.8c4.2.2,7.6,1.2,11.5,2.7.7.3,1.4.5,2.1.8,23.8,9.5,44.4,26.7,62.3,44.7.8.8,1.6,1.5,2.4,2.3,7.6,7.3,13.9,15.3,20.1,23.8,1.3,1.7,2.6,3.4,3.8,5.2.6.9,1.3,1.8,2,2.7.5.7,1.1,1.5,1.6,2.2.3.6.6,1.2,1,1.9q-1,3-3.5,4.4-29.3,11.6-39.5,11.6c-.2-.5-.5-1.1-.7-1.6-12.4-27.1-28.2-50.3-48.3-72.4-1.5-1.7-3-3.4-4.6-5.1-3.5-3.9-7.1-7.5-10.8-11.1-2.5-2.7-3.6-4.8-3.8-8.5.3-3.5.6-3.3,4.3-3.5Z"/>
  <path class="cls-20" d="M70,80c3.3.3,4.6.6,7,3q.3,2.4.3,5.2c0,.9,0,1.8,0,2.8-.8,6.8-3.7,10.8-8.7,15.3-7.6,7.2-13.5,15.6-19.5,24.2q-.6.8-1.2,1.6h-1q-.3-1.4-.6-2.8-1.1-3.3-4-4.7t-3.1-1.1q-12.1-4.5-15.2-10.4c-.4-2.8-.4-4.3,1-6.8,3.2-1.9,6.4-1.6,10-1.2,3.3,1.1,6.4,2.5,9.5,4,.8.4,1.6.8,2.5,1.2,2,.9,4,1.9,6,2.8-.3-.6-.5-1.2-.8-1.8-1.2-2.7-2.5-5.5-3.7-8.2-.4-.9-.9-1.9-1.3-2.8-2.5-5.7-3.9-10-3.2-16.2q2-2,4.2-2.6c4.4.9,6.3,3.9,8.8,7.6q4,7.6,4,11h2c.1-.5.2-1.1.3-1.7q3.1-14.8,6.7-18.3Z"/>
  <path class="cls-23" d="M514.4,470.8q1.4,0,2.9,0c3.1.4,4.4,1.3,6.7,3.3q-.2,2.4-1,5c-5.7,3.8-13.3,4.9-20,6v2q.8.2,1.7.5c5.7,1.8,11.7,3.6,16.3,7.5q1.1,3.8,1,7c-3.8,2.5-5.6,2.2-10,1.7-7.4-1.7-14.3-5.3-21-8.7.4.8.8,1.6,1.2,2.4q7.5,14.6,6.8,22.6c-.7,1-1.3,2-2,3-3.2.5-5,.7-8,0-5.2-4.2-6.7-10-8.9-16.2q-.9-2.9-3.1-4.8t-5-1c2.8-2.9,5.6-5.2,8.9-7.5,4.7-3.4,9.1-6.9,13.5-10.7.6-.5,1.2-1,1.8-1.5,2.6-2.3,5.1-4.6,7.6-7.1,3.4-3.3,6.2-3.4,10.7-3.4Z"/>
  <path class="cls-4" d="M320.4,69.1c4.4,3.4,6.2,6.9,7.1,12.4-.7,4.7-2.4,8-5.6,11.6-5.3,3.3-10.9,3.9-17,3-3.9-2.2-6.3-4.9-8-9-.7-5-.6-8.8,1.7-13.4,6.1-6.7,13.3-7.1,21.8-4.5Z"/>
  <path class="cls-13" d="M294.4,21.8q1.6,1.2,2.6,2.2c.5,3.9.4,5.5-2,8.7-4,3.1-6.5,3-11.4,2.8-.7,0-1.5,0-2.2,0-5.4-.1-11.3-.4-15.4-4.2-1.3-2.7-1.6-4.2-1.1-7.2,6.8-9.2,20.7-7.7,29.4-2.2Z"/>
  <path class="cls-24" d="M253,159c-1.5,3.8-3.8,5.6-7,8q0-3,2.4-5.7t4.6-2.3Z"/>
  <path class="cls-9" d="M421,58l2,1c-1.6,2-3.3,4-5,6h-2c1.2-3.7,1.7-4.8,5-7Z"/>
</svg>